<?xml version="1.0" encoding="utf-8" ?>
<svg baseProfile="full" height="100%" version="1.1" width="100%" xmlns="http://www.w3.org/2000/svg" xmlns:ev="http://www.w3.org/2001/xml-events" xmlns:xlink="http://www.w3.org/1999/xlink"><defs /><line stroke="black" stroke-width="1" x1="25" x2="162.202" y1="25" y2="25" /><text font-family="Arial" font-size="8" x="20" y="10">chr18</text><line stroke="black" stroke-width="1" x1="25" x2="229.002" y1="75" y2="75" /><text font-family="Arial" font-size="8" x="20" y="60">Contig139</text><line stroke="black" stroke-width="1" x1="25" x2="63.5" y1="125" y2="125" /><text font-family="Arial" font-size="8" x="20" y="110">Contig9887</text><line stroke="black" stroke-width="1" x1="108.5" x2="158.03199999999998" y1="125" y2="125" /><text font-family="Arial" font-size="8" x="103.5" y="110">Contig5919</text><line stroke="black" stroke-width="1" x1="203.03199999999998" x2="221.36399999999998" y1="125" y2="125" /><text font-family="Arial" font-size="8" x="198.03199999999998" y="110">Contig33053</text><line stroke="black" stroke-width="1" x1="266.364" x2="327.976" y1="125" y2="125" /><text font-family="Arial" font-size="8" x="261.364" y="110">Contig4976</text><polygon fill="orange" opacity="0.3" points="46.2,25 46.66,25 31.112000000000002,75 30.672,75" stroke="none" stroke-width="0" /><polygon fill="orange" opacity="0.3" points="48.263999999999996,25 48.734,25 35.596000000000004,75 35.104,75" stroke="none" stroke-width="0" /><polygon fill="orange" opacity="0.3" points="49.772,25 50.394,25 39.39,75 38.844,75" stroke="none" stroke-width="0" /><polygon fill="orange" opacity="0.3" points="50.897999999999996,25 51.3,25 41.994,75 41.592,75" stroke="none" stroke-width="0" /><polygon fill="orange" opacity="0.3" points="61.574,25 62.066,25 51.730000000000004,75 51.275999999999996,75" stroke="none" stroke-width="0" /><polygon fill="orange" opacity="0.3" points="70.95,25 71.378,25 70.712,75 70.28399999999999,75" stroke="none" stroke-width="0" /><polygon fill="orange" opacity="0.3" points="72.6,25 73.464,25 72.702,75 71.842,75" stroke="none" stroke-width="0" /><polygon fill="orange" opacity="0.3" points="76.45,25 76.794,25 82.012,75 81.668,75" stroke="none" stroke-width="0" /><polygon fill="orange" opacity="0.3" points="79.25200000000001,25 79.788,25 89.956,75 89.424,75" stroke="none" stroke-width="0" /><polygon fill="orange" opacity="0.3" points="82.97999999999999,25 83.46000000000001,25 92.262,75 91.776,75" stroke="none" stroke-width="0" /><polygon fill="orange" opacity="0.3" points="84.896,25 85.432,25 95.84,75 95.312,75" stroke="none" stroke-width="0" /><polygon fill="orange" opacity="0.3" points="85.544,25 86.202,25 96.632,75 95.924,75" stroke="none" stroke-width="0" /><polygon fill="orange" opacity="0.3" points="129.108,25 129.462,25 127.326,75 126.972,75" stroke="none" stroke-width="0" /><polygon fill="orange" opacity="0.3" points="130.85399999999998,25 131.19799999999998,25 136.768,75 136.418,75" stroke="none" stroke-width="0" /><polygon fill="orange" opacity="0.3" points="132.64600000000002,25 133.076,25 146.64600000000002,75 146.216,75" stroke="none" stroke-width="0" /><polygon fill="orange" opacity="0.3" points="133.636,25 134.1,25 154.754,75 154.278,75" stroke="none" stroke-width="0" /><polygon fill="orange" opacity="0.3" points="135.6,25 136.25400000000002,25 167.414,75 166.774,75" stroke="none" stroke-width="0" /><polygon fill="orange" opacity="0.3" points="136.41,25 136.638,25 167.814,75 167.58,75" stroke="none" stroke-width="0" /><polygon fill="orange" opacity="0.3" points="142.70600000000002,25 143.1,25 174.706,75 174.312,75" stroke="none" stroke-width="0" /><polygon fill="orange" opacity="0.3" points="144.252,25 144.70600000000002,25 175.994,75 175.516,75" stroke="none" stroke-width="0" /><polygon fill="orange" opacity="0.3" points="154.77,25 154.866,25 182.928,75 182.828,75" stroke="none" stroke-width="0" /><polygon fill="orange" opacity="0.3" points="154.892,25 155.062,25 183.136,75 182.966,75" stroke="none" stroke-width="0" /><polygon fill="orange" opacity="0.3" points="161.544,25 162.04,25 187.238,75 186.702,75" stroke="none" stroke-width="0" /><polygon fill="orange" opacity="0.3" points="63.476,75 58.108,75 58.128,125 63.5,125" stroke="none" stroke-width="0" /><polygon fill="orange" opacity="0.3" points="56.884,75 25.296,75 25.002,125 56.592,125" stroke="none" stroke-width="0" /><polygon fill="orange" opacity="0.3" points="135.288,75 85.77600000000001,75 108.502,125 158.03199999999998,125" stroke="none" stroke-width="0" /><polygon fill="orange" opacity="0.3" points="154.118,75 147.50799999999998,75 214.60399999999998,125 221.36399999999998,125" stroke="none" stroke-width="0" /><polygon fill="orange" opacity="0.3" points="146.938,75 143.652,75 210.49599999999998,125 213.77999999999997,125" stroke="none" stroke-width="0" /><polygon fill="orange" opacity="0.3" points="142.114,75 139.594,75 206.154,125 208.66199999999998,125" stroke="none" stroke-width="0" /><polygon fill="orange" opacity="0.3" points="138.06,75 135.87,75 203.034,125 205.23199999999997,125" stroke="none" stroke-width="0" /><polygon fill="orange" opacity="0.3" points="227.242,75 222.538,75 323.272,125 327.976,125" stroke="none" stroke-width="0" /><polygon fill="orange" opacity="0.3" points="221.436,75 166.474,75 267.04999999999995,125 322.022,125" stroke="none" stroke-width="0" /><text fill="black" font-family="Arial" font-size="8" x="20" y="20">ENSP00000465953</text><rect fill="red" height="10" stroke="black" stroke-width="0.5" width="0.3" x="46.332" y="20" /><rect fill="red" height="10" stroke="black" stroke-width="0.5" width="0.362" x="48.367999999999995" y="20" /><rect fill="red" height="10" stroke="black" stroke-width="0.5" width="0.38" x="50.918" y="20" /><rect fill="red" height="10" stroke="black" stroke-width="0.5" width="0.258" x="61.702" y="20" /><rect fill="red" height="10" stroke="black" stroke-width="0.5" width="0.386" x="70.982" y="20" /><rect fill="red" height="10" stroke="black" stroke-width="0.5" width="0.296" x="76.494" y="20" /><rect fill="red" height="10" stroke="black" stroke-width="0.5" width="0.27" x="79.42" y="20" /><rect fill="red" height="10" stroke="black" stroke-width="0.5" width="0.1" x="83.26599999999999" y="20" /><rect fill="red" height="10" stroke="black" stroke-width="0.5" width="0.35" x="84.97399999999999" y="20" /><rect fill="red" height="10" stroke="black" stroke-width="0.5" width="0.246" x="124.572" y="20" /><rect fill="red" height="10" stroke="black" stroke-width="0.5" width="0.166" x="129.276" y="20" /><rect fill="red" height="10" stroke="black" stroke-width="0.5" width="0.32" x="130.872" y="20" /><rect fill="red" height="10" stroke="black" stroke-width="0.5" width="0.38" x="132.668" y="20" /><rect fill="red" height="10" stroke="black" stroke-width="0.5" width="0.258" x="133.7" y="20" /><rect fill="red" height="10" stroke="black" stroke-width="0.5" width="0.386" x="135.614" y="20" /><rect fill="red" height="10" stroke="black" stroke-width="0.5" width="0.296" x="142.80200000000002" y="20" /><rect fill="red" height="10" stroke="black" stroke-width="0.5" width="0.27" x="144.368" y="20" /><rect fill="red" height="10" stroke="black" stroke-width="0.5" width="0.1" x="154.952" y="20" /><polygon fill="red" points="162.03599999999997,25 161.64,35 161.64,15" stroke="black" stroke-width="0.5" /><text fill="black" font-family="Arial" font-size="8" x="20" y="70">ENSP00000465953-D1</text><polygon fill="red" points="187.23999999999998,75 186.838,85 186.838,65" stroke="black" stroke-width="0.5" /><rect fill="red" height="10" stroke="black" stroke-width="0.5" width="0.1" x="183.026" y="70" /><rect fill="red" height="10" stroke="black" stroke-width="0.5" width="0.27" x="175.622" y="70" /><rect fill="red" height="10" stroke="black" stroke-width="0.5" width="0.296" x="174.408" y="70" /><rect fill="red" height="10" stroke="black" stroke-width="0.5" width="0.386" x="166.788" y="70" /><rect fill="red" height="10" stroke="black" stroke-width="0.5" width="0.258" x="154.342" y="70" /><rect fill="red" height="10" stroke="black" stroke-width="0.5" width="0.38" x="146.238" y="70" /><rect fill="red" height="10" stroke="black" stroke-width="0.5" width="0.326" x="136.436" y="70" /><rect fill="red" height="10" stroke="black" stroke-width="0.5" width="0.166" x="127.14" y="70" /><rect fill="red" height="10" stroke="black" stroke-width="0.5" width="0.264" x="120.532" y="70" /><rect fill="red" height="10" stroke="black" stroke-width="0.5" width="0.344" x="95.384" y="70" /><rect fill="red" height="10" stroke="black" stroke-width="0.5" width="0.1" x="92.064" y="70" /><rect fill="red" height="10" stroke="black" stroke-width="0.5" width="0.27" x="89.588" y="70" /><rect fill="red" height="10" stroke="black" stroke-width="0.5" width="0.296" x="81.712" y="70" /><rect fill="red" height="10" stroke="black" stroke-width="0.5" width="0.386" x="70.316" y="70" /><rect fill="red" height="10" stroke="black" stroke-width="0.5" width="0.258" x="51.39" y="70" /><rect fill="red" height="10" stroke="black" stroke-width="0.5" width="0.38" x="41.611999999999995" y="70" /><rect fill="red" height="10" stroke="black" stroke-width="0.5" width="0.362" x="35.230000000000004" y="70" /><rect fill="red" height="10" stroke="black" stroke-width="0.5" width="0.312" x="30.768" y="70" /><text fill="black" font-family="Arial" font-size="8" x="20" y="120">ENSOANP00000011842</text><rect fill="red" height="10" stroke="black" stroke-width="0.5" width="0.39" x="30.396" y="120" /><rect fill="red" height="10" stroke="black" stroke-width="0.5" width="0.362" x="34.936" y="120" /><rect fill="red" height="10" stroke="black" stroke-width="0.5" width="0.38" x="41.318" y="120" /><rect fill="red" height="10" stroke="black" stroke-width="0.5" width="0.258" x="51.096000000000004" y="120" /><polygon fill="red" points="59.98,125 59.894,135 59.894,115" stroke="black" stroke-width="0.5" /><text fill="black" font-family="Arial" font-size="8" x="198.03199999999998" y="120">ENSOANP00000030166</text><rect fill="red" height="10" stroke="black" stroke-width="0.5" width="0.056" x="203.86999999999998" y="120" /><polygon fill="red" points="213.464,125 213.082,135 213.082,115" stroke="black" stroke-width="0.5" /><text fill="black" font-family="Arial" font-size="8" x="261.364" y="120">ENSOANP00000021874</text><rect fill="red" height="10" stroke="black" stroke-width="0.5" width="0.384" x="267.366" y="120" /><rect fill="red" height="10" stroke="black" stroke-width="0.5" width="0.296" x="274.98999999999995" y="120" /><rect fill="red" height="10" stroke="black" stroke-width="0.5" width="0.27" x="276.20399999999995" y="120" /><rect fill="red" height="10" stroke="black" stroke-width="0.5" width="0.1" x="283.60799999999995" y="120" /><polygon fill="red" points="287.48599999999993,125 287.41999999999996,135 287.41999999999996,115" stroke="black" stroke-width="0.5" /><text fill="black" font-family="Arial" font-size="8" x="103.5" y="120">ENSOANP00000028130</text><rect fill="red" height="10" stroke="black" stroke-width="0.5" width="0.29" x="112.298" y="120" /><rect fill="red" height="10" stroke="black" stroke-width="0.5" width="0.1" x="114.804" y="120" /><rect fill="red" height="10" stroke="black" stroke-width="0.5" width="0.344" x="118.124" y="120" /><rect fill="red" height="10" stroke="black" stroke-width="0.5" width="0.264" x="143.274" y="120" /><polygon fill="red" points="150.048,125 149.882,135 149.882,115" stroke="black" stroke-width="0.5" /></svg>